<svg width="56" height="70" viewBox="0 0 56 70" fill="none" xmlns="http://www.w3.org/2000/svg">
<g clip-path="url(#clip0_5073_1805)">
<path d="M54.7988 26.8265C54.3217 22.2127 56.957 12.7408 46.4049 5.33694C37.7398 -0.742465 21.299 -2.38173 11.6904 4.41417C9.01175 6.30856 6.62588 9.02801 6.76687 9.07143C9.58111 9.9942 12.173 9.86935 11.1265 13.8047C11.0289 14.1792 10.9205 14.0109 11.9616 13.5876C16.9611 11.5629 17.5738 16.0573 17.5196 16.0139C16.4947 15.1563 15.844 11.8017 10.2806 15.8185C8.10621 17.3872 5.76372 19.3684 1.64808 18.2611C-0.754056 25.6595 0.0701542 34.035 6.20293 40.5323C7.94896 42.3833 10.8012 43.3875 12.3628 45.233C13.9624 47.122 13.0677 49.456 12.6827 51.7195C12.1893 54.629 11.7989 60.1276 14.6023 61.0341C17.2484 61.8863 16.4839 56.7079 18.295 55.7797C21.6352 57.7501 18.68 62.7982 19.2385 65.7565C19.6669 68.0362 21.7111 69.4638 22.7143 69.3118C24.9266 68.9807 24.5037 61.0069 24.3844 56.5993C25.4797 56.2465 26.5262 57.4244 26.6889 58.5643C26.8516 59.7042 26.4883 60.8604 26.5479 62.0057C26.7269 65.2516 30.425 65.2028 30.3057 61.604C30.2786 60.7952 29.7526 58.0866 30.8208 57.4461C34.9039 54.9872 28.5108 69.7732 32.9247 69.9958C36.8939 70.1966 33.9929 61.2566 34.5298 58.3743C34.9147 56.3225 36.5957 56.8219 37.1217 57.9509C37.729 59.2645 37.0024 61.0232 38.6617 63.4821C39.4316 64.622 40.3046 64.546 40.8469 63.5092C42.4682 60.3935 39.6377 55.9968 41.8772 53.2937C42.9616 54.1839 42.8424 55.834 42.902 57.2399C43.0484 60.5455 46.0091 61.5389 47.0502 58.0812C48.2648 54.0427 47.2833 49.3475 49.1595 45.6727C45.597 46.5195 43.4388 44.218 44.122 44.4568C46.3019 45.2168 48.1184 44.9616 50.2169 44.0769C50.9489 43.1921 51.8111 42.4159 52.5594 41.5365C57.3745 35.8805 55.1133 29.9368 54.7934 26.8211L54.7988 26.8265ZM30.8533 25.1601C31.6179 25.6052 31.1028 26.8157 30.2569 26.5823C24.547 24.9919 19.553 22.1801 15.9633 27.1902C14.1631 29.7034 17.9913 17.7292 30.8533 25.1656V25.1601ZM22.7793 45.613C15.9959 46.9917 14.1902 38.6434 14.3474 38.9474C16.0555 42.3236 18.8047 44.5925 22.6275 44.4731C23.2782 44.4514 23.4246 45.4827 22.7793 45.613ZM25.4905 41.9545C15.074 43.6589 16.0121 25.5564 24.7423 27.6028C26.7052 28.0641 30.669 29.5189 31.5854 31.2341C33.2284 34.3118 31.3685 40.9937 25.4905 41.9545ZM40.1637 27.2608C41.8988 24.677 46.7628 21.8002 50.2386 23.5046C50.9109 23.8357 50.4229 24.8507 49.7451 24.677C44.2142 23.2658 38.6454 29.5189 40.1637 27.2608ZM40.3697 47.8385C40.3372 48.213 37.9405 45.8681 37.7832 45.4773C36.3571 46.0961 34.6707 49.7437 33.9008 46.069C33.4019 43.6698 36.9319 39.7453 38.2495 37.916C39.9251 40.9123 40.6788 44.4243 40.3697 47.8439V47.8385ZM41.6494 39.3219C40.8794 37.7423 40.1094 33.9156 40.8198 31.9778C41.8121 29.28 46.7682 28.7806 48.9589 30.1377C50.9923 31.397 51.1875 34.1273 51.2363 36.2931C51.361 41.7537 44.2522 44.6685 41.6494 39.3165V39.3219Z" fill="url(#paint0_linear_5073_1805)"/>
<path d="M43.5285 35.5913C41.4463 35.5913 41.4409 38.8318 43.5285 38.8318C45.6162 38.8318 45.6162 35.5913 43.5285 35.5913Z" fill="white" fill-opacity="0.7"/>
<path d="M21.7385 35.0212C19.6563 35.0212 19.6509 38.2618 21.7385 38.2618C23.8261 38.2618 23.8261 35.0212 21.7385 35.0212Z" fill="white" fill-opacity="0.7"/>
<path d="M7.79383 16.0832C10.4721 14.5036 10.0547 14.6556 10.0818 13.6623C10.1794 10.5629 9.50708 11.8928 5.80407 10.6063C5.1372 10.3729 2.73539 15.3395 2.15527 16.8377C4.03118 17.4782 6.086 17.0819 7.79383 16.0777V16.0832Z" fill="white" fill-opacity="0.7"/>
</g>
<defs>
<linearGradient id="paint0_linear_5073_1805" x1="28.0002" y1="0" x2="28.0002" y2="69.9991" gradientUnits="userSpaceOnUse">
<stop stop-color="white"/>
<stop offset="1" stop-color="#999999" stop-opacity="0.2"/>
</linearGradient>
<clipPath id="clip0_5073_1805">
<rect width="55.2036" height="69.9991" fill="white" transform="translate(0.398438)"/>
</clipPath>
</defs>
</svg>
