<svg width="82" height="117" viewBox="0 0 82 117" fill="none" xmlns="http://www.w3.org/2000/svg">
<path d="M5.74891 64.2217L5.5324 63.8335C2.03604 57.5654 0 50.3151 0 42.5494C0 19.0396 18.3703 0 41 0C63.6367 0 82 19.0395 82 42.5494C82 50.3155 79.9784 57.5658 76.4713 63.8331L76.232 64.2603L40.9965 117L5.74891 64.2217ZM19.9123 42.5458C19.9123 54.6089 29.3429 64.4107 41.0036 64.4107C52.6751 64.4107 62.0949 54.6089 62.0949 42.5458C62.0949 30.4904 52.6755 20.6808 41.0036 20.6808C29.3428 20.6808 19.9123 30.4902 19.9123 42.5458Z" fill="white" fill-opacity="0.5"/>
</svg>
