<svg viewBox="0 0 30 16" fill="none" xmlns="http://www.w3.org/2000/svg">
<path d="M25.4271 12.4338C25.0517 11.283 23.1111 5.19785 22.4396 3.82633C21.8262 2.57042 19.3093 0.584078 15.0051 0.5C10.7009 0.578823 8.18392 2.57042 7.57055 3.82633C6.89901 5.19785 4.95314 11.283 4.583 12.4338C4.31861 13.2483 25.6968 13.2483 25.4324 12.4338H25.4271Z" fill="white"/>
<path d="M24.7454 10.3317C17.6546 11.0148 9.44279 10.7311 5.3078 10.1846C4.96939 11.2198 4.69442 12.0658 4.5781 12.4284C4.56752 12.4547 4.56752 12.4809 4.57281 12.502C4.57281 12.5072 4.5781 12.5177 4.58339 12.523C4.58868 12.5387 4.59396 12.5545 4.60454 12.565C4.60982 12.5703 4.6204 12.5808 4.63098 12.586C4.64155 12.5966 4.65741 12.6071 4.67328 12.6176C4.68385 12.6228 4.69971 12.6281 4.71029 12.6333C4.73144 12.6438 4.74731 12.6491 4.77375 12.6596C4.78432 12.6596 4.80018 12.6649 4.81076 12.6701C4.85306 12.6806 4.90065 12.6911 4.95353 12.7016C4.96939 12.7016 4.98525 12.7069 5.00111 12.7122C5.06985 12.7227 5.14389 12.7332 5.22849 12.7384H5.24435C5.32367 12.7437 5.41356 12.7489 5.50874 12.7489C5.53518 12.7489 5.55633 12.7489 5.58276 12.7489C5.67266 12.7489 5.76783 12.7489 5.8683 12.7489H5.90531C6.02164 12.7489 6.14854 12.7437 6.28074 12.7384H6.3442C6.46053 12.7279 6.58214 12.7227 6.70905 12.7174C6.7302 12.7174 23.7883 12.2077 25.4222 12.3969C25.3218 12.0868 25.0415 11.225 24.7507 10.337L24.7454 10.3317Z" fill="#020202" fill-opacity="0.4"/>
<g style="mix-blend-mode:multiply" opacity="0.32">
<path d="M24.9939 11.0994C17.7656 11.6459 9.71775 11.4357 5.04871 10.9785C4.83191 11.6406 4.6627 12.1661 4.5781 12.4289C4.56752 12.4551 4.56752 12.4814 4.57281 12.5024C4.60982 12.7074 5.03284 12.7179 5.18619 12.7336C6.31776 12.8177 7.50749 12.6916 8.64434 12.6601C10.035 12.6233 11.4204 12.5812 12.8111 12.5497C14.4978 12.5077 16.1793 12.4656 17.8661 12.4341C19.3995 12.4026 20.9277 12.3763 22.4611 12.3605C23.3865 12.3553 24.3171 12.3238 25.2425 12.3816C25.2583 12.3816 25.417 12.3816 25.417 12.3973C25.3482 12.1766 25.1843 11.6827 24.9939 11.0994V11.0994Z" fill="#020202" fill-opacity="0.4"/>
</g>
<path d="M26.046 11.4304C24.502 11.609 20.6525 11.9348 18.1832 12.0977C17.4429 12.145 11.8961 12.145 11.1558 12.0977C8.7446 11.9348 5.58784 11.546 3.82175 11.4304C1.55861 11.2832 -1.64046 12.3184 0.987534 14.1366C3.61552 15.9548 26.2628 15.9548 28.9807 14.1366C31.6985 12.3184 28.3779 11.1571 26.046 11.4304V11.4304Z" fill="white"/>
<path d="M29.5309 13.7014C25.4012 15.3146 5.7627 14.8627 0.189453 13.3809C0.342797 13.6121 0.601888 13.8643 0.993179 14.1323C3.61588 15.9505 26.2684 15.9505 28.9863 14.1323C29.2084 13.9852 29.3882 13.838 29.5362 13.6962L29.5309 13.7014Z" fill="#020202" fill-opacity="0.4"/>
<path d="M20.9432 7.24707C17.6331 6.08575 18.4527 10.8729 18.4527 10.8729C21.6147 10.9097 24.2533 8.4084 20.9432 7.24707ZM18.5532 10.8099C18.5532 10.8099 19.4098 7.87766 20.314 8.28754C21.2182 8.69216 19.8539 10.5524 18.5532 10.8099Z" fill="#020202" fill-opacity="0.4"/>
<g style="mix-blend-mode:multiply" opacity="0.32">
<path d="M20.4519 7.93629C18.7439 7.17959 18.4531 10.8685 18.4531 10.8738C21.0071 10.8948 22.3555 8.78232 20.4519 7.93629ZM18.7281 10.7634C18.6593 10.7897 18.5853 10.8107 18.5166 10.8212C18.5166 10.8212 18.7387 10.0698 19.0612 9.47071C19.3891 8.7613 19.8438 8.07292 20.3144 8.28837C21.1763 8.67723 19.976 10.3851 18.7334 10.7634H18.7281Z" fill="#020202" fill-opacity="0.4"/>
</g>
<path d="M14.7464 9.49612C13.2288 12.6963 18.4055 10.8676 18.4055 10.8676C18.3843 8.90757 16.0313 6.78986 14.7464 9.49612ZM18.3632 10.8151C18.3632 10.8151 15.64 10.6837 16.0683 9.92702C16.4702 9.21236 18.1517 10.0374 18.3632 10.8151Z" fill="#020202" fill-opacity="0.4"/>
<g style="mix-blend-mode:multiply" opacity="0.32">
<path d="M15.3382 9.61716C14.2966 11.0255 16.2107 11.3933 17.2947 11.1831C17.9239 11.036 18.4104 10.8678 18.4104 10.8678C18.4104 10.6839 16.8928 7.52572 15.3382 9.61716V9.61716ZM16.0679 9.9272C16.4328 9.27559 17.8605 9.90617 18.2729 10.6103C18.2782 10.6208 18.2835 10.6313 18.2888 10.6419C18.2994 10.6629 18.3099 10.6786 18.3152 10.6997C18.3417 10.747 18.3734 10.7942 18.3839 10.8415C18.3839 10.8415 17.7864 10.81 17.2788 10.6944C16.5756 10.5735 15.8247 10.3476 16.0626 9.92194L16.0679 9.9272Z" fill="#020202" fill-opacity="0.4"/>
</g>
</svg>