<svg viewBox="0 0 22 22" fill="none" xmlns="http://www.w3.org/2000/svg">
<g filter="url(#filter0_d_1831_5261)">
<path d="M12.8831 9.68971L11.138 9.65288L11.0687 7.2753C11.0687 7.12483 10.9466 7.00311 10.7964 7.00311C10.6463 7.00311 10.5242 7.12483 10.5242 7.2753L10.4448 9.99725C10.4448 10.1912 10.6022 10.3486 10.7964 10.3486L12.8831 10.3051C13.0528 10.3051 13.1903 10.167 13.1903 9.99725C13.1904 9.82725 13.0528 9.68971 12.8831 9.68971Z" fill="white"/>
<path d="M16.5373 7.08606L15.012 3.3927H12.8221V3.87063H8.77027V3.3927H6.58004L5.05391 7.08891C4.6177 7.95614 4.36621 8.93243 4.36621 9.96969C4.36621 11.0066 4.6177 11.983 5.05391 12.8505L6.58004 16.5464H8.77027V16.0685L12.8221 16.0688V16.5464H15.012L16.537 12.8539C16.9738 11.9856 17.2262 11.0081 17.2262 9.96969C17.2262 8.93153 16.9738 7.95442 16.5373 7.08606ZM10.7965 14.757C9.47176 14.7567 8.27996 14.2227 7.41102 13.3549C6.5432 12.4859 6.00918 11.2941 6.00891 9.96973C6.00922 8.64501 6.54324 7.45348 7.41102 6.58454C8.27996 5.71704 9.47176 5.1827 10.7965 5.18243C12.1209 5.1827 13.313 5.71704 14.1817 6.58454C15.0492 7.45321 15.5835 8.64501 15.5835 9.96973C15.5835 11.2941 15.0492 12.4859 14.1817 13.3549C13.3125 14.2227 12.1209 14.7567 10.7965 14.757Z" fill="white"/>
<path d="M14.9295 0.931367C14.9295 0.416914 14.5123 0 13.9981 0H7.59348C7.0793 0 6.66211 0.416914 6.66211 0.931367V2.69117H14.9295V0.931367H14.9295Z" fill="white"/>
<path d="M6.66211 19.069C6.66211 19.5832 7.0793 20.0001 7.59348 20.0001H13.9981C14.5123 20.0001 14.9295 19.5832 14.9295 19.069V17.3093H6.66211V19.069Z" fill="white"/>
<path d="M10.7966 6.19418C10.9592 6.19418 11.0912 6.06242 11.0912 5.89957C11.0912 5.73672 10.9592 5.60492 10.7966 5.60492C10.6337 5.60492 10.502 5.73672 10.502 5.89957C10.502 6.06246 10.6337 6.19418 10.7966 6.19418Z" fill="white"/>
<path d="M10.7966 13.8057C10.6337 13.8057 10.502 13.9375 10.502 14.1004C10.502 14.2632 10.6337 14.395 10.7966 14.395C10.9592 14.395 11.0912 14.2632 11.0912 14.1004C11.0912 13.9375 10.9592 13.8057 10.7966 13.8057Z" fill="white"/>
<path d="M8.105 7.30923C8.22008 7.19415 8.22008 7.0077 8.105 6.89231C7.98988 6.77719 7.80344 6.77751 7.68836 6.89231C7.57328 7.00739 7.57328 7.19384 7.68836 7.30923C7.80344 7.4243 7.98992 7.42403 8.105 7.30923Z" fill="white"/>
<path d="M13.4877 12.6907C13.3726 12.8058 13.3726 12.9923 13.4877 13.1077C13.6028 13.2228 13.7892 13.2225 13.9043 13.1077C14.0194 12.9926 14.0194 12.8061 13.9043 12.6907C13.7892 12.5757 13.6028 12.576 13.4877 12.6907Z" fill="white"/>
<path d="M6.69553 9.70532C6.53264 9.70532 6.40088 9.83735 6.40088 9.99993C6.40088 10.1625 6.53264 10.2946 6.69553 10.2946C6.85838 10.2946 6.99018 10.1625 6.99045 9.99993C6.99045 9.83739 6.85838 9.70532 6.69553 9.70532Z" fill="white"/>
<path d="M14.8962 9.70532C14.7334 9.70532 14.6016 9.83735 14.6016 9.99993C14.6016 10.1625 14.7334 10.2946 14.8962 10.2946C15.0591 10.2946 15.1909 10.1625 15.1909 9.99993C15.1909 9.83739 15.0591 9.70532 14.8962 9.70532Z" fill="white"/>
<path d="M7.68843 12.6914C7.57304 12.8068 7.57358 12.9933 7.68812 13.1083C7.80319 13.2231 7.98964 13.2234 8.10503 13.108C8.22042 12.9929 8.21987 12.8065 8.10534 12.6914C7.99026 12.5763 7.80351 12.5763 7.68843 12.6914Z" fill="white"/>
<path d="M13.4877 6.8923C13.3723 7.00741 13.3729 7.19417 13.4877 7.30894C13.6025 7.42402 13.7893 7.42433 13.9043 7.30894C14.0197 7.19386 14.0191 7.00741 13.9043 6.8923C13.7895 6.77749 13.6028 6.77722 13.4877 6.8923Z" fill="white"/>
</g>
<defs>
<filter id="filter0_d_1831_5261" x="0.366211" y="0" width="20.8599" height="28.0001" filterUnits="userSpaceOnUse" color-interpolation-filters="sRGB">
<feFlood flood-opacity="0" result="BackgroundImageFix"/>
<feColorMatrix in="SourceAlpha" type="matrix" values="0 0 0 0 0 0 0 0 0 0 0 0 0 0 0 0 0 0 127 0" result="hardAlpha"/>
<feOffset dy="4"/>
<feGaussianBlur stdDeviation="2"/>
<feComposite in2="hardAlpha" operator="out"/>
<feColorMatrix type="matrix" values="0 0 0 0 0 0 0 0 0 0 0 0 0 0 0 0 0 0 0.25 0"/>
<feBlend mode="normal" in2="BackgroundImageFix" result="effect1_dropShadow_1831_5261"/>
<feBlend mode="normal" in="SourceGraphic" in2="effect1_dropShadow_1831_5261" result="shape"/>
</filter>
</defs>
</svg>